PathFileType	4	(X/Y/Z)	/Users/niels/Desktop/University/Third Semester/Perception and Action/Exam/Gymnastics Motion Tracking/Code for Gym Tracking/Analyzed Data/Webcam_Backflip/id4_2_trajectory_Sports2D/id4_2_trajectory_Sports2D_px_person00.trc
DataRate	CameraRate	NumFrames	NumMarkers	Units	OrigDataRate	OrigDataStartFrame	OrigNumFrames
29.714285714285715	29.714285714285715	7	22	m	29.714285714285715	26	105
Frame#	Time	Hip			RHip			RKnee			RAnkle			RBigToe			RSmallToe			RHeel			LHip			LKnee			LAnkle			LBigToe			LSmallToe			LHeel			Neck			Head			Nose			RShoulder			RElbow			RWrist			LShoulder			LElbow			LWrist		
		X1	Y1	Z1	X2	Y2	Z2	X3	Y3	Z3	X4	Y4	Z4	X5	Y5	Z5	X6	Y6	Z6	X7	Y7	Z7	X8	Y8	Z8	X9	Y9	Z9	X10	Y10	Z10	X11	Y11	Z11	X12	Y12	Z12	X13	Y13	Z13	X14	Y14	Z14	X15	Y15	Z15	X16	Y16	Z16	X17	Y17	Z17	X18	Y18	Z18	X19	Y19	Z19	X20	Y20	Z20	X21	Y21	Z21	X22	Y22	Z22
26	0.875	0.9576733928423665	-0.6212664753473467	0.0	0.9552131019137178	-0.6178600871033355	0.0	0.9660553169351119	-0.7387201849615495	0.0	0.9468382992075973	-0.8591299390688681	0.0	0.983143286584381	-0.8813742226726707	0.0	0.9723592188804384	-0.883580385371355	0.0	0.9371912238199046	-0.8775068668771779	0.0	0.9611776800885291	-0.6167026439121571	0.0	0.9634920329621034	-0.7375380794017936	0.0	0.9474302316848039	-0.8527533064832619	0.0	0.9747162208498933	-0.8777792220543905	0.0	0.9703485310740969	-0.8728250750139198	0.0	0.934550323544662	-0.8669662033600243	0.0	0.9623038453505118	-0.45374645209628084	0.0	0.9812773367344958	-0.37572672677854096	0.0	0.9865628997107626	-0.421911806751725	0.0	0.9521750962150803	-0.46971283840048345	0.0	0.9891612439758212	-0.5314228955778674	0.0	1.0604946435492932	-0.503667487837865	0.0	0.9559884511616197	-0.47022287210526037	0.0	0.9863111716373436	-0.5259150279088004	0.0	1.0503507250237716	-0.49705232846053327	0.0
27	0.9086538461538461	0.9587631085998791	-0.6213243588744247	0.0	0.9563506092505067	-0.617528810881884	0.0	0.9662730351546726	-0.7391566598961691	0.0	0.9471067041583099	-0.8589824198780137	0.0	0.9815919785836265	-0.8813634569884637	0.0	0.9717367399337742	-0.8836752792612665	0.0	0.9374539317229629	-0.8768677952386992	0.0	0.9617751146141339	-0.6163627120331432	0.0	0.9637088558211496	-0.7379165608744839	0.0	0.9474161048100124	-0.8524568611650857	0.0	0.9732543611483896	-0.878194058049096	0.0	0.9687268855999123	-0.8729394819555074	0.0	0.934555567952994	-0.8665720883389678	0.0	0.9624014733098054	-0.4536168400109654	0.0	0.9815909794030736	-0.375805062812118	0.0	0.9871066919013866	-0.42211467810870995	0.0	0.9525864213932436	-0.4693131615504608	0.0	0.9954017373711544	-0.5238085838496055	0.0	1.063178498779581	-0.4895766901202905	0.0	0.9556550658911859	-0.4694646315210465	0.0	0.9905082421618001	-0.5212006149470739	0.0	1.0529479896968652	-0.48667885343574935	0.0
28	0.9423076923076923	0.9598660814888382	-0.6211355995070338	0.0	0.9575679576691911	-0.6168525061388135	0.0	0.9664897147889958	-0.7393830947003637	0.0	0.9473689453172902	-0.8588046939534906	0.0	0.9806815418204999	-0.8810387175427022	0.0	0.9715354035309307	-0.88339399379705	0.0	0.9378665455434627	-0.8762770087333492	0.0	0.9625501865048057	-0.6157134597183918	0.0	0.9640393706534994	-0.7381266514058547	0.0	0.9474759619891925	-0.8522699427844902	0.0	0.9730153017009149	-0.8780640360070875	0.0	0.9682951040573076	-0.8726829493567617	0.0	0.9346833197780954	-0.8662844972594471	0.0	0.9623887965258471	-0.4535523317841642	0.0	0.9821508611191285	-0.37592173186201466	0.0	0.9879171149872289	-0.4221389905865186	0.0	0.9529586180070914	-0.46886785301770595	0.0	1.0019734845249504	-0.514568244572764	0.0	1.065476423139321	-0.4740199438459692	0.0	0.9551033372580908	-0.4687067166918143	0.0	0.9930358301294571	-0.5166146772921162	0.0	1.051686908175886	-0.47705600783918334	0.0
29	0.9759615384615384	0.9610409370680113	-0.6206002777221535	0.0	0.9588777567456691	-0.6158185009682052	0.0	0.9667833080519819	-0.7392659278194008	0.0	0.9476321427721072	-0.8585940334956336	0.0	0.9802192716967861	-0.8805446806518207	0.0	0.971349233392599	-0.8827970337549961	0.0	0.9384207550914907	-0.8757178855735529	0.0	0.9635087967586616	-0.6146306888837593	0.0	0.9645113670147305	-0.7380644353483058	0.0	0.9476438509066054	-0.8521004161285785	0.0	0.9737563427602518	-0.8774344156057671	0.0	0.9689662797611864	-0.8720105128491342	0.0	0.9349986594457537	-0.8659378812007544	0.0	0.9621692175975197	-0.4536089387782907	0.0	0.983128078046092	-0.37605507648009323	0.0	0.9891542508441813	-0.42185960636708386	0.0	0.9533217658955262	-0.4682997365863791	0.0	1.0083304689793255	-0.5041043829471603	0.0	1.0671853734809582	-0.4576388818235956	0.0	0.9541576902118233	-0.467896574372776	0.0	0.9927861278508657	-0.5125598605546748	0.0	1.0448913605156027	-0.4695225154575486	0.0
30	1.0096153846153846	0.9623133484110598	-0.6196848056983507	0.0	0.9602848008285205	-0.6145547478780059	0.0	0.9671748334745742	-0.738768056681479	0.0	0.9479678994043836	-0.8583254681259714	0.0	0.9802007142888234	-0.8799804868517093	0.0	0.9711729527934809	-0.8819884331855602	0.0	0.9391377507668807	-0.8751498327226122	0.0	0.9646865044730085	-0.6131435089074657	0.0	0.9651447326739441	-0.7376700900304533	0.0	0.9479899859934707	-0.8518663106551441	0.0	0.9752387331133417	-0.8764433431442393	0.0	0.9705731479280748	-0.8709909840988942	0.0	0.9356364236979389	-0.8654065823347422	0.0	0.9617581068175727	-0.45373780185962476	0.0	0.9845413154647483	-0.3761611755944928	0.0	0.990841931898334	-0.42108446161197843	0.0	0.9536809432454879	-0.4675279776295026	0.0	1.0139326002553577	-0.49300243979055186	0.0	1.0681816959341859	-0.4412494400489372	0.0	0.9529769856122609	-0.466915983010447	0.0	0.9901929241685493	-0.5086138705103782	0.0	1.0329428562134395	-0.4642522517386588	0.0
31	1.0432692307692306	0.9636742879908253	-0.6184853040403174	0.0	0.9618140926002307	-0.6132946007760371	0.0	0.967682110086925	-0.7379935340464325	0.0	0.9484420612108763	-0.8579954307562888	0.0	0.980692208481912	-0.8793916758324956	0.0	0.971260104853884	-0.8810598958570237	0.0	0.9400079817294966	-0.874557283764105	0.0	0.9661185501454406	-0.6115053376807397	0.0	0.9659529742599675	-0.7369625529933267	0.0	0.9485674401994709	-0.8515655957355266	0.0	0.9771781888382168	-0.8752750613823213	0.0	0.9727583606457515	-0.8697681342627742	0.0	0.9366564311047548	-0.8646648062193237	0.0	0.9612758622749747	-0.4538007008237743	0.0	0.9862761613759631	-0.37618051127012786	0.0	0.9928708537203583	-0.4196392966079698	0.0	0.9539991349535667	-0.46651646342236747	0.0	1.018387382593813	-0.4819055419303023	0.0	1.068408648925763	-0.42571820736373384	0.0	0.9519678474950741	-0.4656911575749468	0.0	0.9875672580589655	-0.5032719982324776	0.0	1.0192967656565846	-0.45893430944133073	0.0
32	1.0769230769230769	0.9651181850175873	-0.6171601726519662	0.0	0.9634953104845863	-0.6122287081213151	0.0	0.9683510525264198	-0.7371097503758847	0.0	0.9490281517812779	-0.8575810064313926	0.0	0.9815215957199556	-0.8788018264502967	0.0	0.9716764614536235	-0.8800665268726718	0.0	0.9409310727835944	-0.8739179774903975	0.0	0.9677797834659461	-0.6100566063985954	0.0	0.9669608807617857	-0.7360201400379023	0.0	0.9493248754368275	-0.8512225762176857	0.0	0.979148686281374	-0.8740947327695862	0.0	0.9749124000445129	-0.8684843251432321	0.0	0.9379203515291394	-0.8637271791694223	0.0	0.9608904059423088	-0.45361957348009185	0.0	0.9881767873722158	-0.3760334987097494	0.0	0.9950341980372912	-0.4175214981945082	0.0	0.95423311409715	-0.4652666806961707	0.0	1.0215432075311304	-0.4713743494112423	0.0	1.067897767369633	-0.4117711190964287	0.0	0.9515078127751869	-0.4642574674478238	0.0	0.9876432995477527	-0.494866213437434	0.0	1.0086594767943848	-0.44918656162814613	0.0
